PathFileType	4	(X/Y/Z)	SUBJ36_3_walk_RCNL2025.trc
DataRate	CameraRate	NumFrames	NumMarkers	Units	OrigDataRate	OrigDataStartFrame	OrigNumFrames
100	100	7	25	mm	100	44	344
Frame#	Time	R_Shoulder			L_Shoulder			C7			J_Notch			R_Elbow			L_Elbow			R_Wrist			L_Wrist			R_Asis			L_Asis			Sacral			Thoracic			Sternum			R_Thigh_Lateral			R_Knee_Lateral			R_Shank_Lateral			R_Ankle_Lateral			R_Heel			R_Toe			L_Thigh_Lateral			L_Knee_Lateral			L_Shank_Lateral			L_Ankle_Lateral			L_Heel			L_Toe		
		X1	Y1	Z1	X2	Y2	Z2	X3	Y3	Z3	X4	Y4	Z4	X5	Y5	Z5	X6	Y6	Z6	X7	Y7	Z7	X8	Y8	Z8	X9	Y9	Z9	X10	Y10	Z10	X11	Y11	Z11	X12	Y12	Z12	X13	Y13	Z13	X14	Y14	Z14	X15	Y15	Z15	X16	Y16	Z16	X17	Y17	Z17	X18	Y18	Z18	X19	Y19	Z19	X20	Y20	Z20	X21	Y21	Z21	X22	Y22	Z22	X23	Y23	Z23	X24	Y24	Z24	X25	Y25	Z25
44	0.43000000	-1958.405151	1332.271240	242.076996	-1996.282959	1292.011353	-106.060005	-2043.399780	1385.215454	81.129753	-1909.133057	1281.300903	71.558228	-2025.636963	1017.606323	328.208679	-2069.012695	980.928162	-139.668716	-1937.680542	793.165161	349.012802	-1999.981018	758.141296	-156.902031	-1902.656860	883.960571	210.318634	-1904.768555	890.096985	-18.818510	-2125.221436	879.851990	97.254311	-2116.200928	1126.891357	103.724503	-1865.395264	1102.812744	86.593224	-2099.119873	497.233398	257.100769	-2115.360107	439.543243	211.327942	-2259.305176	284.114258	246.420029	-2353.400635	141.362396	177.043655	-2399.164551	157.329620	128.918060	-2290.162109	36.969997	138.499832	-1865.983032	510.045715	-89.580910	-1838.930176	442.366638	-16.719643	-1838.517822	231.182404	-44.767857	-1832.417480	65.716896	32.994137	-1865.806030	35.588329	90.107689	-1703.180176	43.080734	42.664211
45	0.44000000	-1946.287598	1333.622559	240.920258	-1983.934570	1293.138306	-107.128403	-2031.125244	1386.333862	79.985695	-1896.623779	1282.633179	70.383064	-2014.331421	1019.450745	327.159790	-2056.266846	981.979004	-140.463058	-1930.366821	793.724731	349.164627	-1986.677612	759.280090	-157.606621	-1891.039429	884.209473	209.300125	-1892.265137	891.899963	-20.321533	-2113.349609	880.770325	96.815063	-2103.894775	1128.169312	103.015915	-1852.981689	1104.113892	85.608208	-2080.838867	494.266571	256.779449	-2096.105469	436.865692	211.419922	-2244.691406	287.167816	246.645004	-2342.482422	147.079422	177.670380	-2386.574219	165.799988	129.086349	-2286.217041	38.625103	139.017303	-1855.175903	511.750916	-91.097794	-1831.019531	442.698029	-17.797522	-1834.270874	230.940430	-45.668709	-1831.613892	65.749763	32.784927	-1865.553589	35.969135	89.848618	-1702.703369	42.385479	42.738625
46	0.45000000	-1934.246948	1335.002930	239.887283	-1971.511475	1294.359741	-108.110229	-2018.860718	1387.508179	78.914894	-1884.116211	1283.946777	69.362694	-2003.229492	1021.362854	326.206299	-2043.410767	983.103088	-141.264694	-1923.127258	794.480133	349.371887	-1973.132202	760.504700	-158.223412	-1879.739136	884.412415	208.293686	-1879.834839	893.731934	-21.792774	-2101.778809	881.653992	96.259789	-2091.744629	1129.558350	102.287292	-1840.801880	1105.276855	84.747124	-2061.831055	491.090973	256.552246	-2076.055908	434.027496	211.534286	-2228.867188	290.302521	246.877365	-2330.489258	153.194519	178.263092	-2372.944824	174.536163	129.311783	-2281.078857	41.228252	139.696381	-1846.026489	512.827087	-92.467033	-1824.469727	442.706970	-18.863091	-1831.354248	230.591110	-46.272366	-1831.046143	65.766518	32.621273	-1865.391724	36.244431	89.650627	-1702.373535	41.966820	42.818497
47	0.46000000	-1922.292969	1336.364380	238.991745	-1959.018677	1295.615479	-108.993576	-2006.605469	1388.726929	77.920761	-1871.655640	1285.216309	68.500526	-1992.359131	1023.279175	325.369293	-2030.457520	984.243652	-142.078400	-1915.948730	795.363586	349.623749	-1959.368042	761.772003	-158.755180	-1868.736572	884.558899	207.315155	-1867.581543	895.536072	-23.164524	-2090.506104	882.533936	95.553780	-2079.764648	1131.041260	101.519447	-1828.852539	1106.291016	84.022469	-2042.249268	487.911133	256.397736	-2055.347900	431.206940	211.666840	-2211.896484	293.556885	247.090454	-2317.397217	159.663422	178.752960	-2358.322754	183.313263	129.487091	-2274.319580	44.780857	140.590607	-1838.673340	513.248657	-93.685745	-1819.118042	442.467590	-19.900816	-1829.548462	230.221603	-46.637650	-1830.666992	65.778519	32.497021	-1865.297974	36.438667	89.505875	-1702.144775	41.726303	42.893341
48	0.47000000	-1910.431885	1337.669556	238.239029	-1946.461426	1296.855713	-109.771553	-1994.361572	1389.981201	77.001251	-1859.276489	1286.426025	67.798927	-1981.739746	1025.153076	324.661072	-2017.411743	985.356262	-142.908325	-1908.823853	796.315582	349.908539	-1945.409546	763.048309	-159.203415	-1857.997314	884.685974	206.375168	-1855.667603	897.270752	-24.364876	-2079.511475	883.466370	94.678474	-2067.962646	1132.601685	100.696754	-1817.121826	1107.173706	83.447884	-2022.281738	484.963715	256.286316	-2034.128418	428.610962	211.813156	-2193.887939	296.966095	247.250183	-2303.166992	166.371750	179.070297	-2342.743164	191.837601	129.485107	-2265.510498	49.184940	141.781952	-1832.946899	513.087952	-94.761978	-1814.717896	442.069366	-20.890234	-1828.582031	229.903488	-46.843906	-1830.426270	65.790695	32.402637	-1865.250854	36.578014	89.401291	-1701.979736	41.590115	42.954208
49	0.48000000	-1898.671387	1338.894775	237.628281	-1933.844238	1298.044678	-110.440971	-1982.135986	1391.264038	76.149094	-1847.003418	1287.570190	67.257820	-1971.385620	1026.957642	324.080811	-2004.270874	986.414490	-143.758667	-1901.746460	797.295105	350.216751	-1931.276184	764.309174	-159.567390	-1847.478760	884.871887	205.475998	-1844.283569	898.908630	-25.324551	-2068.762451	884.514526	93.632118	-2056.341064	1134.224609	99.808235	-1805.593018	1107.956177	83.039299	-2002.125732	482.469971	256.182068	-2012.540405	426.434875	211.967834	-2174.977783	300.534088	247.315109	-2287.754150	173.133423	179.161880	-2326.224609	199.783218	129.190567	-2254.298096	54.248020	143.370880	-1828.465332	512.500183	-95.707558	-1810.999023	441.602448	-21.809874	-1828.163940	229.683578	-46.970791	-1830.275635	65.802345	32.326561	-1865.232544	36.686604	89.320793	-1701.851440	41.508648	42.996220
50	0.49000000	-1887.023071	1340.032227	237.152039	-1921.171875	1299.163086	-111.001320	-1969.940186	1392.569702	75.354134	-1834.853516	1288.648315	66.870186	-1961.307617	1028.683716	323.612000	-1991.027588	987.410217	-144.632553	-1894.708313	798.282257	350.541138	-1916.978210	765.539429	-159.841591	-1837.138428	885.216736	204.613495	-1833.584595	900.432190	-25.994267	-2058.222168	885.727173	92.430595	-2044.898438	1135.896118	98.846519	-1794.247437	1108.670288	82.812744	-1981.946533	480.590515	256.049866	-1990.704956	424.825134	212.125519	-2155.305176	304.212555	247.239838	-2271.119629	179.704468	179.003540	-2308.765381	206.837677	128.532852	-2240.468994	59.697033	145.435806	-1824.775757	511.682281	-96.540703	-1807.710815	441.146973	-22.643757	-1828.009277	229.575455	-47.086548	-1830.174683	65.811348	32.255352	-1865.230347	36.784550	89.246994	-1701.743530	41.451530	43.014660
